HIERARCHY
ROOT Hips
{
    OFFSET 0.000000 0.000000 0.000000
    CHANNELS 6 Xposition Yposition Zposition Zrotation Xrotation Yrotation
    JOINT Spine
    {
        OFFSET -0.000000 6.925600 0.000000
        CHANNELS 3 Zrotation Xrotation Yrotation
        JOINT Spine1
        {
            OFFSET -0.000000 16.343796 0.000000
            CHANNELS 3 Zrotation Xrotation Yrotation
            JOINT Neck
            {
                OFFSET -0.000000 18.032967 0.000000
                CHANNELS 3 Zrotation Xrotation Yrotation
                JOINT Head
                {
                    OFFSET -0.000000 13.091072 1.689171
                    CHANNELS 3 Zrotation Xrotation Yrotation
                    End Site
                    {
                        OFFSET -0.000000 16.891708 0.000000
                    }
                }
            }
            JOINT LeftShoulder
            {
                OFFSET 3.336773 14.146137 -0.012206
                CHANNELS 3 Zrotation Xrotation Yrotation
                JOINT LeftArm
                {
                    OFFSET 11.765518 0.000000 0.000000
                    CHANNELS 3 Zrotation Xrotation Yrotation
                    JOINT LeftForeArm
                    {
                        OFFSET 25.163450 0.000000 0.000000
                        CHANNELS 3 Zrotation Xrotation Yrotation
                        JOINT LeftHand
                        {
                            OFFSET 21.783554 0.000000 0.000000
                            CHANNELS 3 Zrotation Xrotation Yrotation
                            End Site
                            {
                                OFFSET 12.668781 0.000000 0.000000
                            }
                        }
                    }
                }
            }
            JOINT RightShoulder
            {
                OFFSET -3.409204 14.146137 -0.012206
                CHANNELS 3 Zrotation Xrotation Yrotation
                JOINT RightArm
                {
                    OFFSET -11.765518 0.000000 0.000000
                    CHANNELS 3 Zrotation Xrotation Yrotation
                    JOINT RightForeArm
                    {
                        OFFSET -25.163450 0.000000 0.000000
                        CHANNELS 3 Zrotation Xrotation Yrotation
                        JOINT RightHand
                        {
                            OFFSET -21.783554 0.000000 0.000000
                            CHANNELS 3 Zrotation Xrotation Yrotation
                            End Site
                            {
                                OFFSET -12.668781 0.000000 0.000000
                            }
                        }
                    }
                }
            }
        }
    }
    JOINT LeftUpLeg
    {
        OFFSET 8.445854 0.000000 0.000000
        CHANNELS 3 Zrotation Xrotation Yrotation
        JOINT LeftLeg
        {
            OFFSET -0.000000 -40.674755 0.000000
            CHANNELS 3 Zrotation Xrotation Yrotation
            JOINT LeftFoot
            {
                OFFSET -0.000000 -37.111794 0.000000
                CHANNELS 3 Zrotation Xrotation Yrotation
                JOINT LeftToeBase
                {
                    OFFSET -0.000000 -5.489805 12.668781
                    CHANNELS 3 Zrotation Xrotation Yrotation
                    End Site
                    {
                        OFFSET -0.000000 0.000000 3.378341
                    }
                }
            }
        }
    }
    JOINT RightUpLeg
    {
        OFFSET -8.445854 0.000000 0.000000
        CHANNELS 3 Zrotation Xrotation Yrotation
        JOINT RightLeg
        {
            OFFSET -0.000000 -40.674755 0.000000
            CHANNELS 3 Zrotation Xrotation Yrotation
            JOINT RightFoot
            {
                OFFSET -0.000000 -37.111794 0.000000
                CHANNELS 3 Zrotation Xrotation Yrotation
                JOINT RightToeBase
                {
                    OFFSET -0.000000 -5.489805 12.668781
                    CHANNELS 3 Zrotation Xrotation Yrotation
                    End Site
                    {
                        OFFSET -0.000000 0.000000 3.378341
                    }
                }
            }
        }
    }
}
MOTION
Frames:    4
Frame Time:    0.008333
70.854675    83.363693    139.515106    -4.923968    -1.385338    -100.301079    6.048036    3.122299    7.579794    -7.239867    14.991171    3.530403    -7.528574    6.084074    28.332802    -0.501055    -15.070710    27.842659    -1.980749    8.142808    10.449109    -49.808853    40.985569    -25.267599    6.276627    0.210272    -25.230440    -1.363438    1.664423    -4.042417    -3.912796    9.452964    -1.834232    60.099167    23.976782    40.554104    4.476332    20.229378    6.894367    -20.357262    15.849241    23.802353    -4.612265    1.529009    -9.327900    0.168906    6.376424    3.190675    0.610952    -3.103380    14.734951    -3.648831    -3.854638    2.139218    -10.549323    -3.652551    -10.605327    -11.805387    21.758900    -13.573791    25.155205    -2.018519    -0.726882    1.015731    -3.219032    3.128756    
70.850258    83.367233    139.461639    -4.891111    -1.384712    -100.277649    5.941678    3.113005    7.597315    -7.203496    15.004227    3.530983    -7.380745    6.189081    28.333185    -0.769900    -15.345985    27.857418    -1.977187    8.097624    10.476576    -49.664539    41.090954    -25.455355    6.368799    0.140495    -25.472601    -0.972998    1.616294    -4.118371    -3.873157    9.391448    -1.862312    60.005833    23.921238    40.516590    4.415155    20.053181    6.818499    -20.317060    15.711130    23.648825    -4.593976    1.500667    -9.331121    0.222778    6.396950    3.190092    0.552638    -3.113398    14.720217    -3.663267    -3.866873    2.156234    -10.536750    -3.673682    -10.651542    -11.786663    21.793085    -13.579138    25.230360    -2.038638    -0.683665    1.003749    -3.237627    3.211104    
70.845146    83.369461    139.408798    -4.861238    -1.390239    -100.249504    5.895155    3.117190    7.605067    -7.288344    14.971268    3.542428    -7.269972    6.200962    28.316816    -0.782599    -15.397464    27.860065    -1.908021    8.093091    10.434905    -49.513786    41.191017    -25.613964    6.420904    0.009967    -25.731808    -0.492486    1.495603    -4.098820    -4.015254    9.243807    -1.784695    60.427551    23.765354    40.209026    4.330322    20.033363    6.690558    -20.596680    15.670902    23.491138    -4.600346    1.442365    -9.359436    0.209560    6.395147    3.192998    2.863215    -0.966119    14.173333    -5.454848    -5.851124    3.168850    -10.533572    -3.692162    -10.687454    -11.780162    21.828680    -13.567059    25.345274    -2.041106    -0.663950    0.988071    -3.264792    3.325179    
70.838196    83.372276    139.356583    -4.848438    -1.392841    -100.246574    5.772560    3.101566    7.617137    -7.221081    14.986340    3.537314    -7.210106    6.190166    28.302094    -0.832045    -15.439251    27.855539    -1.899759    8.064052    10.405968    -49.366711    41.335918    -25.769619    6.499052    -0.139817    -25.960253    0.036527    1.358495    -4.146681    -4.006517    9.220147    -1.798098    60.363522    23.652752    40.156132    4.282334    19.856298    6.701043    -20.689892    15.512481    23.273243    -4.581831    1.435820    -9.362264    0.242653    6.410412    3.189493    2.817798    -0.969349    14.175853    -5.467370    -5.858032    3.195575    -10.537205    -3.706453    -10.709167    -11.773673    21.884493    -13.423422    25.494780    -2.117916    -0.707545    0.942196    -3.240688    3.431075    
